<svg width="40" height="40" viewBox="0 0 40 40" fill="none" xmlns="http://www.w3.org/2000/svg">
<path d="M19.8662 17.473C19.8662 16.8102 19.3289 16.273 18.6662 16.273C18.0034 16.273 17.4662 16.8102 17.4662 17.473H19.8662ZM18.6662 21.5341H17.4662C17.4662 22.1969 18.0034 22.7341 18.6662 22.7341V21.5341ZM22.6673 22.7341C23.3301 22.7341 23.8673 22.1969 23.8673 21.5341C23.8673 20.8714 23.3301 20.3341 22.6673 20.3341V22.7341ZM29.3084 32.6964C29.6931 33.2361 30.4424 33.3618 30.9821 32.9772C31.5218 32.5925 31.6475 31.8432 31.2629 31.3035L29.3084 32.6964ZM27.5977 26.1607C27.2131 25.6209 26.4638 25.4952 25.9241 25.8799C25.3844 26.2645 25.2586 27.0138 25.6433 27.5535L27.5977 26.1607ZM28.5048 6.80459C27.8446 6.7467 27.2625 7.23497 27.2046 7.89518C27.1467 8.55539 27.635 9.13752 28.2952 9.19541L28.5048 6.80459ZM30.8233 11.4599C30.9533 12.1098 31.5854 12.5312 32.2353 12.4013C32.8852 12.2713 33.3067 11.6391 33.1767 10.9893L30.8233 11.4599ZM13.3777 26.8573L14.238 26.0208L14.2359 26.0186L13.3777 26.8573ZM10.6674 20.1802L11.8674 20.1835L11.8673 20.1714L10.6674 20.1802ZM19.9999 10.707L20.0091 9.50707C20.003 9.50702 19.9969 9.50702 19.9908 9.50707L19.9999 10.707ZM29.3325 20.1802L28.1325 20.1714C28.1325 20.1773 28.1325 20.1832 28.1325 20.1892L29.3325 20.1802ZM19.9999 29.655L19.9999 30.8551L20.0091 30.855L19.9999 29.655ZM14.355 27.5533C14.7396 27.0135 14.6137 26.2642 14.0739 25.8797C13.5341 25.4952 12.7848 25.6211 12.4003 26.1609L14.355 27.5533ZM8.73685 31.3037C8.35234 31.8435 8.47822 32.5928 9.01801 32.9773C9.5578 33.3618 10.3071 33.236 10.6916 32.6962L8.73685 31.3037ZM11.7048 9.19541C12.365 9.13752 12.8533 8.55539 12.7954 7.89518C12.7375 7.23497 12.1554 6.7467 11.4952 6.80459L11.7048 9.19541ZM6.8233 10.9893C6.69334 11.6391 7.11481 12.2713 7.76469 12.4013C8.41456 12.5312 9.04674 12.1098 9.1767 11.4599L6.8233 10.9893ZM18.6662 17.473H17.4662V21.5341H18.6662H19.8662V17.473H18.6662ZM18.6662 21.5341V22.7341H22.6673V21.5341V20.3341H18.6662V21.5341ZM30.2857 31.9999L31.2629 31.3035L27.5977 26.1607L26.6205 26.8571L25.6433 27.5535L29.3084 32.6964L30.2857 31.9999ZM28.4 8L28.2952 9.19541C29.5472 9.30519 30.5768 10.2275 30.8233 11.4599L32 11.2246L33.1767 10.9893C32.7213 8.71179 30.8185 7.00746 28.5048 6.80459L28.4 8ZM13.3777 26.8573L14.2359 26.0186C12.712 24.4593 11.8614 22.3638 11.8674 20.1835L10.6674 20.1802L9.46738 20.1769C9.45968 22.9865 10.5557 25.6867 12.5194 27.696L13.3777 26.8573ZM10.6674 20.1802L11.8673 20.1714C11.8342 15.6412 15.479 11.9416 20.0091 11.907L19.9999 10.707L19.9908 9.50707C14.1355 9.55174 9.42454 14.3337 9.4674 20.189L10.6674 20.1802ZM19.9999 10.707L19.9908 11.907C24.5209 11.9416 28.1657 15.6412 28.1325 20.1714L29.3325 20.1802L30.5325 20.189C30.5753 14.3337 25.8644 9.55174 20.0091 9.50707L19.9999 10.707ZM29.3325 20.1802L28.1325 20.1892C28.1665 24.7199 24.5215 28.4205 19.9908 28.4551L19.9999 29.655L20.0091 30.855C25.8652 30.8103 30.5764 26.0272 30.5325 20.1712L29.3325 20.1802ZM19.9999 29.655L20 28.455C17.8294 28.455 15.7511 27.577 14.238 26.0208L13.3777 26.8573L12.5173 27.6938C14.4823 29.7148 17.1812 30.855 19.9999 30.855L19.9999 29.655ZM13.3777 26.8571L12.4003 26.1609L8.73685 31.3037L9.71423 31.9999L10.6916 32.6962L14.355 27.5533L13.3777 26.8571ZM11.6 8L11.4952 6.80459C9.1815 7.00746 7.27874 8.71179 6.8233 10.9893L8 11.2246L9.1767 11.4599C9.42316 10.2275 10.4528 9.30519 11.7048 9.19541L11.6 8Z" fill="#565656"/>
</svg>
