<svg width="40" height="40" viewBox="0 0 40 40" fill="none" xmlns="http://www.w3.org/2000/svg">
<path fill-rule="evenodd" clip-rule="evenodd" d="M11.6463 11.5543L16.3297 8.9487C18.6137 7.68377 21.388 7.68377 23.672 8.9487L28.3554 11.5543C30.5905 12.7761 31.9861 15.115 32 17.6621V24.831C31.9966 26.7928 31.176 28.6644 29.7354 29.996C28.345 31.2901 26.5143 32.0065 24.6149 32H15.3851C13.4857 32.0065 11.655 31.2901 10.2646 29.996C8.82403 28.6644 8.00343 26.7928 8 24.831V17.6621C8.01422 15.1146 9.41053 12.7757 11.6463 11.5543Z" stroke="#1F1F1F" stroke-width="2" stroke-linecap="round" stroke-linejoin="round"/>
<path d="M16.0006 31.9999V29.6C16.0006 27.3908 17.7916 25.5998 20.0009 25.5998C22.2102 25.5998 24.0012 27.3908 24.0012 29.6V31.9999" stroke="#1F1F1F" stroke-width="2" stroke-linecap="round" stroke-linejoin="round"/>
</svg>
