<svg width="40" height="40" viewBox="0 0 40 40" fill="none" xmlns="http://www.w3.org/2000/svg">
<path d="M21.8189 21.3811L18.2487 30.1939C18.2295 30.2409 18.1939 30.2783 18.1491 30.2994L18.1004 30.3144L16.012 30.7019C15.8675 30.7287 15.7445 30.5952 15.7832 30.4533L18.5075 20.4545C18.5364 20.3484 18.6462 20.285 18.7524 20.3138L21.6864 21.1132L21.7275 21.1295C21.8031 21.1694 21.8446 21.2544 21.8304 21.3387L21.8189 21.3811Z" fill="#565656" stroke="#565656" stroke-width="0.221589"/>
<path d="M21.8345 18.367L18.2643 9.55415C18.2451 9.50717 18.2095 9.46973 18.1647 9.44869L18.116 9.4336L16.0276 9.04613C15.8831 9.01933 15.7602 9.15288 15.7988 9.29472L18.5231 19.2935C18.5521 19.3997 18.6618 19.463 18.768 19.4343L21.702 18.6349C21.8029 18.6074 21.8626 18.5079 21.8461 18.4094L21.8345 18.367Z" fill="#565656" stroke="#565656" stroke-width="0.221589"/>
<path d="M12.5645 19.6562L11.2695 24.6992C11.265 24.7169 11.256 24.733 11.2441 24.7461L11.1992 24.7764L8.83203 25.623C8.76103 25.6484 8.68897 25.5971 8.68359 25.5273L8.68555 25.4971L9.84473 19.6943C9.84903 19.6728 9.85061 19.6508 9.85059 19.6289L9.84375 19.5625L8.68555 13.8818C8.67069 13.8088 8.72961 13.7456 8.79883 13.749L8.8291 13.7549L11.1982 14.5381C11.2159 14.544 11.2318 14.5542 11.2441 14.5674L11.2705 14.6152L12.5635 19.6016L12.5645 19.6562Z" fill="#565656" stroke="#565656" stroke-width="0.221589"/>
<path d="M31.8037 19.6387C31.8037 20.7019 30.9412 21.5635 29.8779 21.5635L11.6641 21.5635L11.6641 17.7129L29.8779 17.7129C30.9412 17.7129 31.8037 18.5754 31.8037 19.6387Z" fill="#565656" stroke="#565656" stroke-width="0.221589"/>
</svg>
