<svg width="40" height="40" viewBox="0 0 40 40" fill="none" xmlns="http://www.w3.org/2000/svg">
<path d="M14.0929 28.7071C14.4834 29.0976 15.1166 29.0976 15.5071 28.7071C15.8976 28.3166 15.8976 27.6834 15.5071 27.2929L14.0929 28.7071ZM10 23.2V22.2C9.59555 22.2 9.23091 22.4436 9.07613 22.8173C8.92135 23.191 9.00691 23.6211 9.29291 23.9071L10 23.2ZM29.2 24.2C29.7523 24.2 30.2 23.7523 30.2 23.2C30.2 22.6477 29.7523 22.2 29.2 22.2V24.2ZM25.1071 11.2929C24.7166 10.9024 24.0834 10.9024 23.6929 11.2929C23.3024 11.6834 23.3024 12.3166 23.6929 12.7071L25.1071 11.2929ZM29.2 16.8V17.8C29.6044 17.8 29.9691 17.5564 30.1239 17.1827C30.2786 16.809 30.1931 16.3789 29.9071 16.0929L29.2 16.8ZM10 15.8C9.44772 15.8 9 16.2477 9 16.8C9 17.3523 9.44772 17.8 10 17.8V15.8ZM14.8 28L15.5071 27.2929L10.7071 22.4929L10 23.2L9.29291 23.9071L14.0929 28.7071L14.8 28ZM10 23.2V24.2H29.2V23.2V22.2H10V23.2ZM24.4 12L23.6929 12.7071L28.4929 17.5071L29.2 16.8L29.9071 16.0929L25.1071 11.2929L24.4 12ZM29.2 16.8V15.8L10 15.8V16.8V17.8H29.2V16.8Z" fill="black"/>
</svg>
