<svg width="40" height="40" viewBox="0 0 40 40" fill="none" xmlns="http://www.w3.org/2000/svg">
<path d="M11.1289 22.7282C11.1289 11.8554 28.3612 11.3083 28.9766 22.7282" stroke="#565656" stroke-width="1.5" stroke-linecap="round"/>
<path d="M4.13867 22.6934H8.92542" stroke="#565656" stroke-width="1.5" stroke-linecap="round"/>
<path d="M30.8691 22.6934H35.6559" stroke="#565656" stroke-width="1.5" stroke-linecap="round"/>
<path d="M19.8203 7.72363L19.8203 12.5104" stroke="#565656" stroke-width="1.5" stroke-linecap="round"/>
<path d="M32.041 12.3574L28.3742 15.4343" stroke="#565656" stroke-width="1.5" stroke-linecap="round"/>
<path d="M11.3691 15.4336L7.70228 12.3567" stroke="#565656" stroke-width="1.5" stroke-linecap="round"/>
<path d="M4.49609 28.8375C5.33947 27.4014 6.51666 24.558 9.8299 27.1963C13.5225 30.1367 14.7534 27.7433 16.5997 26.5125C18.6864 25.1213 19.5061 24.9472 22.549 27.7433C25.0791 30.0683 26.31 28.4955 28.2247 26.8544C30.6181 24.8029 32.6558 25.3089 35.0629 28.4272" stroke="#565656" stroke-width="1.5" stroke-linecap="round"/>
<path d="M6.8125 32.4028C7.46909 31.1265 9.78832 29.5993 11.2677 30.9441C14.1425 33.5575 15.3547 32.0381 16.7921 30.9441C18.2295 29.8502 20.5345 29.7728 22.1145 31.4304C24.0843 33.4967 25.2137 31.1636 27.1282 30.3364C28.7321 29.6434 30.7787 29.6314 32.6526 32.4028" stroke="#565656" stroke-width="1.5" stroke-linecap="round"/>
</svg>
